# xmcd CD database file
#
# Track frame offsets:
#	150
#	19042
#	36513
#	58520
#
# Disc length: 1240 seconds
#
# Revision: 1
# Processed by: cddbd v1.5.2PL0 Copyright (c) Steve Scherf et al.
# Submitted via: CDex 1.93
#
DISCID=2d04d604
DTITLE=Nordic Giants - Build Seas
DYEAR=2013
DGENRE=Post Rock
TTITLE0=Violent Lights ft Alex Hedley
TTITLE1=Drumfire
TTITLE2=Neotenie
TTITLE3=Between Two Worlds ft Freyja
EXTD=YEAR: 2013
EXTT0=
EXTT1=
EXTT2=
EXTT3=
PLAYORDER=
